<svg width="130.756" height="64.894" viewBox="0 0 130.756 64.894" xmlns="http://www.w3.org/2000/svg">
	<g id="svgGroup" stroke-linecap="round" fill-rule="evenodd" font-size="9pt" stroke="#000" stroke-width="0.25mm" fill="none" style="stroke:#000;stroke-width:0.25mm;fill:none">
		<path d="M 31.331 56.842 L 31.331 63.341 Q 30.034 63.99 27.674 64.417 A 29.09 29.09 0 0 1 27.451 64.456 A 29.61 29.61 0 0 1 23.926 64.858 A 25.745 25.745 0 0 1 22.601 64.893 Q 18.527 64.893 15.084 63.487 A 11.328 11.328 0 0 1 10.168 59.579 A 14.344 14.344 0 0 1 9.506 58.588 Q 7.961 56.06 7.535 52.058 A 30.893 30.893 0 0 1 7.372 48.791 L 7.372 18.527 L 0 18.527 L 0 14.453 L 7.469 11.058 L 10.864 0 L 15.908 0 L 15.908 11.931 L 30.943 11.931 L 30.943 18.527 L 15.908 18.527 L 15.908 48.597 Q 15.908 51.627 16.834 53.652 A 6.716 6.716 0 0 0 18.188 55.629 A 7.692 7.692 0 0 0 23.019 57.859 A 10.449 10.449 0 0 0 24.056 57.909 A 23.992 23.992 0 0 0 27.715 57.62 A 26.517 26.517 0 0 0 28.033 57.569 Q 29.402 57.341 30.42 57.091 A 16.44 16.44 0 0 0 31.331 56.842 Z" id="0" vector-effect="non-scaling-stroke"/>
		<path d="M 86.912 37.83 Q 86.912 50.731 80.365 57.812 A 21.643 21.643 0 0 1 67.322 64.554 A 30.868 30.868 0 0 1 62.662 64.893 A 25.705 25.705 0 0 1 55.39 63.896 A 22.258 22.258 0 0 1 50.391 61.741 A 21.47 21.47 0 0 1 42.822 54.173 A 26.4 26.4 0 0 1 41.904 52.526 A 27.037 27.037 0 0 1 39.488 45.388 Q 38.886 42.33 38.811 38.837 A 46.779 46.779 0 0 1 38.8 37.83 Q 38.8 24.929 45.299 17.945 A 21.477 21.477 0 0 1 57.901 11.358 A 30.897 30.897 0 0 1 62.953 10.961 A 26.955 26.955 0 0 1 69.804 11.799 A 22.164 22.164 0 0 1 75.417 14.113 A 21.484 21.484 0 0 1 83.263 22.138 A 26.007 26.007 0 0 1 83.856 23.232 Q 86.912 29.197 86.912 37.83 Z M 49.458 48.977 A 18.029 18.029 0 0 0 51.265 52.428 A 11.77 11.77 0 0 0 58.882 57.421 A 19.018 19.018 0 0 0 62.856 57.812 A 18.096 18.096 0 0 0 67.359 57.286 A 11.781 11.781 0 0 0 74.399 52.429 A 19.207 19.207 0 0 0 76.983 46.763 Q 77.706 44.208 77.955 41.159 A 40.976 40.976 0 0 0 78.085 37.83 A 37.248 37.248 0 0 0 77.688 32.211 Q 77.237 29.263 76.275 26.867 A 17.148 17.148 0 0 0 74.399 23.377 A 11.85 11.85 0 0 0 67.106 18.601 A 19.188 19.188 0 0 0 62.759 18.139 A 18.963 18.963 0 0 0 58.317 18.625 A 11.541 11.541 0 0 0 51.216 23.377 A 18.437 18.437 0 0 0 48.77 28.694 Q 47.627 32.629 47.627 37.83 Q 47.627 44.368 49.458 48.977 Z" id="1" vector-effect="non-scaling-stroke"/>
		<path d="M 130.756 11.543 L 129.689 19.4 Q 128.428 19.109 126.924 18.915 A 23.582 23.582 0 0 0 124.926 18.74 A 19.998 19.998 0 0 0 124.063 18.721 Q 120.086 18.721 116.594 20.904 A 15.475 15.475 0 0 0 111.49 26.176 A 18.6 18.6 0 0 0 111.016 27.014 A 17.626 17.626 0 0 0 109.2 32.585 A 23.141 23.141 0 0 0 108.931 36.181 L 108.931 63.923 L 100.395 63.923 L 100.395 11.931 L 107.379 11.931 L 108.349 21.437 L 108.737 21.437 Q 111.259 17.169 115.236 14.065 A 14.656 14.656 0 0 1 123.8 10.98 A 18.434 18.434 0 0 1 124.645 10.961 A 33.411 33.411 0 0 1 126.359 11.007 A 42.304 42.304 0 0 1 127.797 11.106 A 27.62 27.62 0 0 1 129.009 11.236 Q 129.668 11.322 130.247 11.435 A 15.244 15.244 0 0 1 130.756 11.543 Z" id="2" vector-effect="non-scaling-stroke"/>
	</g>
</svg>